<?xml version="1.0" encoding="UTF-8"?>
<svg xmlns="http://www.w3.org/2000/svg" viewBox="0 0 150 150" fill="#777888">
  <path class="cls-2" d="M79.82,86.66s-1.41-3.18-1.41-11.13,1.41-11.22,1.41-11.22c38.16,10.42,62.8,5.39,61.66-.71-1.77-9.01-6.01-18.02-12.37-25.79-.18-.26-.44-.53-.8-.88-11.75-13.87-30.3-23.94-53.62-23.94s-41.87,10.07-53.62,23.94c-.27,.35-.53,.62-.8,.88-6.36,7.77-10.6,16.78-12.37,25.79-1.15,6.09,23.5,11.13,61.66,.71,0,0,1.32,2.65,1.32,11.13s-1.32,11.13-1.32,11.13c-38.16-10.33-62.8-5.21-61.66,.8,1.77,9.01,6.01,18.02,12.37,25.79,.18,.27,.44,.53,.8,.88,11.75,13.87,30.3,23.94,53.62,23.94s41.87-10.07,53.62-23.94c.26-.35,.53-.62,.8-.88,6.36-7.77,10.6-16.78,12.37-25.79,1.15-6.01-23.5-11.13-61.66-.71Zm40.01,.62c-9.36,2.47-16.61,7.6-19.7,10.07-4.42-1.94-8.74-3.62-12.98-5.21,22.52-6.45,32.68-4.86,32.68-4.86Zm-.62-44.61c-15.63-4.15-30.74-13.07-40.46-20.14,18.73,2.83,32.51,9.27,40.46,20.14Zm-54.94-19.52c7.16,6.71,34.89,23.32,61.83,29.06,0,0-33.21,1.24-73.49-25.97,3.53-1.32,7.42-2.39,11.66-3.09ZM28.67,43.82c3.53,1.94,7.07,3.71,10.51,5.39-5.39,6.95-20.63,12.38-21.1,12.53,3.7-8.03,7.23-13.68,10.59-17.92Zm.88,19.87c9.36-2.47,16.61-7.6,19.7-10.07,4.42,1.94,8.74,3.62,12.98,5.12-22.52,6.62-32.68,4.95-32.68,4.95Zm5.56-26.68c2.12-2.12,4.68-4.06,7.51-5.83,0,0,40.81,28.18,86.57,29.15,0,0-30.3,9.98-94.07-23.32Zm-4.95,71.28c15.63,4.15,30.65,13.07,40.46,20.14-18.73-2.83-32.51-9.27-40.46-20.14Zm54.94,19.52c-7.16-6.71-34.89-23.32-61.83-29.06,0,0,33.21-1.24,73.49,25.97-3.53,1.32-7.42,2.39-11.66,3.09Zm21.64-7.95s-40.81-28.18-86.57-29.24c0,0,30.3-9.98,94.07,23.32l.09,.09c-2.3,2.03-4.77,3.97-7.6,5.83Zm13.96-12.63c-3.53-1.94-7.07-3.71-10.51-5.39,5.39-7.04,20.63-12.46,21.1-12.62-3.61,8.03-7.15,13.68-10.59,18.01Z"/>
</svg>